<svg width="20" height="20" viewBox="0 0 20 20" fill="none" xmlns="http://www.w3.org/2000/svg">
<path d="M11.6702 10V16.5667C11.7035 16.8167 11.6202 17.0833 11.4285 17.2583C11.3514 17.3356 11.2599 17.3969 11.159 17.4387C11.0582 17.4805 10.9502 17.502 10.841 17.502C10.7319 17.502 10.6238 17.4805 10.523 17.4387C10.4222 17.3969 10.3306 17.3356 10.2535 17.2583L8.57853 15.5833C8.48769 15.4944 8.41862 15.3858 8.3767 15.2658C8.33478 15.1458 8.32115 15.0178 8.33686 14.8917V10H8.31186L3.51186 3.85C3.37653 3.67628 3.31547 3.45605 3.34202 3.23744C3.36856 3.01883 3.48056 2.81962 3.65353 2.68333C3.81186 2.56667 3.98686 2.5 4.17019 2.5H15.8369C16.0202 2.5 16.1952 2.56667 16.3535 2.68333C16.5265 2.81962 16.6385 3.01883 16.665 3.23744C16.6916 3.45605 16.6305 3.67628 16.4952 3.85L11.6952 10H11.6702Z" fill="#303030"/>
</svg>
